<svg width="220" height="70" viewBox="0 0 220 70" fill="none" xmlns="http://www.w3.org/2000/svg">
<path d="M219.645 62.4839H211.274V38.4367H219.645V62.4839ZM211.934 36.5089C211.223 35.9001 210.868 34.9193 210.868 33.5664C210.868 32.2135 211.223 31.2158 211.934 30.5732C212.644 29.9306 213.811 29.6093 215.434 29.6093C217.058 29.6093 218.224 29.9306 218.935 30.5732C219.645 31.2158 220 32.2135 220 33.5664C220 34.8855 219.645 35.8663 218.935 36.5089C218.224 37.1177 217.058 37.4221 215.434 37.4221C213.811 37.4221 212.644 37.1177 211.934 36.5089Z" fill="#390607"/>
<path d="M196.065 39.9588C197.925 38.3692 199.937 37.5743 202.102 37.5743C204.267 37.5743 205.789 38.0986 206.668 39.1471C207.581 40.1617 208.038 41.7006 208.038 43.7637V62.4839H199.413V46.6554C199.413 45.8099 199.041 45.3871 198.297 45.3871C197.35 45.3871 196.555 45.6239 195.913 46.0974V62.4839H187.39V29.9645H195.862V39.9588H196.065Z" fill="#390607"/>
<path d="M168.731 45.3871C168.731 42.9181 169.475 41.0072 170.963 39.6543C172.485 38.2676 174.565 37.5743 177.203 37.5743C179.841 37.5743 182.513 37.9125 185.219 38.5889L184.356 45.6407C180.906 44.8628 178.59 44.4739 177.406 44.4739C176.696 44.4739 176.34 44.7614 176.34 45.3363C176.34 45.7084 176.729 46.0466 177.507 46.351C180.213 47.3318 182.242 48.4479 183.595 49.6993C184.982 50.9507 185.675 52.8278 185.675 55.3306C185.675 57.8334 185.033 59.7443 183.747 61.0634C182.462 62.3486 180.484 62.9912 177.812 62.9912C175.174 62.9912 172.536 62.653 169.897 61.9766L170.455 55.1277C173.838 56.0409 176.019 56.4975 177 56.4975C178.015 56.4975 178.522 56.2607 178.522 55.7872C178.522 55.3137 178.15 54.9417 177.406 54.6711C174.396 53.5212 172.197 52.3036 170.811 51.0184C169.424 49.6993 168.731 47.8222 168.731 45.3871Z" fill="#390607"/>
<path d="M157.753 44.829C156.873 44.829 156.298 45.1334 156.028 45.7422C155.757 46.3172 155.622 47.2134 155.622 48.431H160.036V47.2134C160.036 45.6238 159.275 44.829 157.753 44.829ZM157.956 37.5743C161.439 37.5743 163.925 38.4198 165.413 40.1109C166.935 41.7682 167.696 44.1526 167.696 47.2642C167.696 47.67 167.578 49.4964 167.341 52.7433H155.774C155.774 55.2799 156.941 56.5482 159.275 56.5482C160.391 56.5482 162.572 56.1593 165.819 55.3814L166.529 61.6722C163.688 62.5515 160.847 62.9912 158.006 62.9912C154.523 62.9912 151.851 61.8582 149.991 59.5921C148.13 57.2923 147.2 54.1807 147.2 50.2574C147.2 41.802 150.785 37.5743 157.956 37.5743Z" fill="#390607"/>
<path d="M144.176 62.484H136.211V46.0467H135.754L132.761 62.484H124.593L121.752 46.0467H121.245V62.484H113.381L114.447 30.9791H125.862L128.703 48.0252H129.109L131.848 30.9791H143.111L144.176 62.484Z" fill="#390607"/>
<path d="M97.8662 61.9258V69.4342H89.3431V38.183H96.3442L96.8515 39.705H97.1052C98.0522 38.3183 99.9124 37.625 102.686 37.625C105.459 37.625 107.404 38.5889 108.52 40.5167C109.67 42.4445 110.245 45.6068 110.245 50.0037C110.245 54.4005 109.636 57.6812 108.419 59.8457C107.235 61.9765 105.036 63.0419 101.823 63.0419C100.335 63.0419 99.0838 62.6698 98.0691 61.9258H97.8662ZM101.417 54.874C101.553 54.2652 101.637 53.6733 101.671 53.0983C101.705 52.5234 101.722 51.4411 101.722 49.8515C101.722 48.228 101.603 46.9935 101.367 46.148C101.13 45.2686 100.64 44.8289 99.8955 44.8289C99.1852 44.8289 98.475 45.0319 97.7647 45.4377V55.9393C98.4073 56.2437 99.0161 56.3959 99.5911 56.3959C100.2 56.3959 100.623 56.2945 100.859 56.0915C101.13 55.8548 101.316 55.4489 101.417 54.874Z" fill="#390607"/>
<path d="M74.121 39.9587C75.9812 38.3691 78.0274 37.5743 80.2596 37.5743C82.4918 37.5743 84.0476 38.0985 84.927 39.147C85.8401 40.1616 86.2967 41.7005 86.2967 43.7636V62.4839H77.6722V46.6554C77.6722 45.8098 77.3002 45.3871 76.5561 45.3871C75.6091 45.3871 74.8143 45.6238 74.1717 46.0973V62.4839H65.5472V46.6554C65.5472 45.8098 65.1752 45.3871 64.4311 45.3871C63.4841 45.3871 62.6893 45.6238 62.0467 46.0973V62.4839H53.5236V38.1831H61.2857L61.793 39.9587H61.9959C63.8561 38.3691 66.0545 37.5743 68.5911 37.5743C71.1616 37.5743 72.8357 38.5213 73.6136 40.4153L74.121 39.9587Z" fill="#390607"/>
<path d="M13.1108 40.8964C13.1108 45.2511 13.5378 48.3686 14.3918 50.249C15.2959 52.0799 16.7527 52.9954 18.762 52.9954C20.7713 52.9954 23.6095 52.5253 27.2765 51.5851L29.2356 62.0511C25.2672 63.4862 21.2737 64.2037 17.255 64.2037C11.2271 64.2037 6.83169 62.249 4.06887 58.3398C1.35629 54.381 0 48.517 0 40.748C0 32.9294 1.43164 26.9665 4.29492 22.8592C7.1582 18.7025 11.8299 16.6242 18.3099 16.6242C22.1276 16.6242 25.7695 17.4159 29.2356 18.9994L27.2012 30.5046C23.283 29.218 20.5453 28.5747 18.9881 28.5747C16.7778 28.5747 15.2457 29.5397 14.3918 31.4696C13.5378 33.35 13.1108 36.4923 13.1108 40.8964Z" fill="#390607"/>
<path d="M183.799 19.5737C184.809 20.1098 185.968 21.0974 186.199 21.7166C187.564 21.7166 190.754 21.6463 192.585 21.3649C194.875 21.0132 201.86 20.2769 203.803 20.2769C205.5 20.2769 206.816 21.3318 206.936 22.6211C207.057 23.9104 205.371 24.1448 203.805 24.4964C202.238 24.848 192.103 25.1156 188.97 24.8812C185.837 24.6467 185.958 25.1156 184.873 25.8188C183.789 26.5221 183.269 31.1773 181.871 32.1154C180.015 33.3603 171.15 34.9284 164.278 34.9284C158.504 34.9284 149.098 32.9628 147.721 32.2322C146.396 31.5289 145.59 25.8188 144.988 25.2328C144.385 24.6467 141.754 24.2296 141.383 24.028C141.095 23.8721 140.419 22.2698 140.901 21.9182C141.704 21.332 142.959 21.4162 144.757 20.7457C145.038 20.5894 145.094 20.5113 145.48 20.0425C145.962 19.4565 151.736 16.325 165.714 16.6766C179.692 17.0283 182.473 18.8704 183.799 19.5737Z" fill="#390607" stroke="#390607" stroke-width="0.573247" stroke-linecap="round" stroke-linejoin="round"/>
<path d="M164.763 18.676C159.415 18.676 154.598 19.1446 151.142 19.8918C149.406 20.2669 148.059 20.7027 147.167 21.1584C146.72 21.3868 146.43 21.5987 146.263 21.7756C146.099 21.9486 146.102 22.0326 146.102 22.0354C146.101 22.0409 146.102 22.1245 146.263 22.2942C146.43 22.4711 146.72 22.6838 147.167 22.9123C148.059 23.3681 149.406 23.8028 151.142 24.1779C154.598 24.9251 159.415 25.3947 164.763 25.3947C170.111 25.3947 174.928 24.9252 178.385 24.1779C180.12 23.8029 181.467 23.368 182.358 22.9123C182.805 22.6839 183.095 22.4711 183.263 22.2942C183.424 22.1242 183.424 22.0408 183.424 22.0354C183.424 22.0326 183.426 21.9486 183.263 21.7756C183.095 21.5988 182.805 21.3867 182.358 21.1584C181.467 20.7027 180.12 20.2669 178.385 19.8918C174.928 19.1446 170.111 18.676 164.763 18.676Z" stroke="white" stroke-width="1.71974"/>
<ellipse cx="1.3255" cy="1.05488" rx="1.3255" ry="1.05488" transform="matrix(-1 -8.74228e-08 -8.74228e-08 1 175.367 21.0975)" fill="white"/>
<ellipse cx="2.16901" cy="1.28929" rx="2.16901" ry="1.28929" transform="matrix(-1 -8.74228e-08 -8.74228e-08 1 162.663 20.1598)" fill="white"/>
<path d="M167.414 21.918L168.86 23.0901" stroke="white" stroke-width="1.43312" stroke-linecap="round"/>
<path d="M154.469 21.5662L155.915 22.7383" stroke="white" stroke-width="1.43312" stroke-linecap="round"/>
<path d="M202.237 20.863C200.795 20.8647 199.112 21.1527 198.992 21.6354C198.92 21.925 199.394 22.1988 199.954 22.3112C200.434 22.4077 201.276 22.5039 202.237 22.5039C202.968 22.5039 205.01 22.3115 205.01 21.6354C205.01 21.153 204.404 20.8605 202.237 20.863Z" fill="white"/>
<path d="M162.154 4.21947C162.058 1.8753 163.92 0.351591 164.804 -3.45605e-05C163.841 2.46134 164.624 4.77505 164.926 5.39155C165.408 6.37635 166.974 8.20456 167.335 9.96268C167.832 12.3815 165.848 14.4166 164.683 15.1199C164.683 14.5338 165.528 12.5413 164.683 10.5487C163.491 7.73597 162.275 7.14968 162.154 4.21947Z" fill="#390607"/>
<path d="M157.536 6.99423C157.461 5.32242 158.91 4.23575 159.598 3.98497C158.849 5.74037 159.458 7.39046 159.693 7.83014C160.068 8.53247 161.288 9.83631 161.569 11.0902C161.956 12.8152 160.411 14.2666 159.504 14.7682C159.504 14.3502 160.162 12.9292 159.504 11.5081C158.576 9.50213 157.629 9.084 157.536 6.99423Z" fill="#390607"/>
<path d="M168.621 6.99423C168.546 5.32242 169.996 4.23575 170.684 3.98498C169.935 5.74038 170.544 7.39046 170.779 7.83014C171.154 8.53247 172.373 9.83631 172.655 11.0902C173.042 12.8152 171.497 14.2666 170.59 14.7682C170.59 14.3502 171.248 12.9292 170.59 11.5081C169.662 9.50213 168.715 9.084 168.621 6.99423Z" fill="#390607"/>
<path d="M53.8411 62.5555H44.3938L40.7083 53.2479L37.0227 62.5555H28.0891L40.9651 37.5477L53.8411 62.5555Z" fill="#390607"/>
</svg>
