<svg width="1086" height="348" viewBox="0 0 1086 348" fill="none" xmlns="http://www.w3.org/2000/svg">
<path d="M927.955 172.876C922.999 172.876 919.282 171.755 916.804 169.513C914.326 167.153 913.087 163.908 913.087 159.778C913.087 155.648 914.68 152.226 917.866 149.512C921.17 146.68 925.241 145.264 930.079 145.264C934.445 145.264 937.985 146.326 940.699 148.45C943.413 150.574 944.77 153.583 944.77 157.477C944.77 162.197 943.236 165.973 940.168 168.805C937.1 171.519 933.029 172.876 927.955 172.876ZM910.963 267.925C907.187 267.925 904.591 267.158 903.175 265.624C901.759 264.09 901.051 261.671 901.051 258.367C901.051 257.423 901.169 255.771 901.405 253.411C903.293 231.817 906.42 212.17 910.786 194.47C911.73 190.812 913.264 188.275 915.388 186.859C917.63 185.325 921.17 184.558 926.008 184.558C931.082 184.558 933.619 186.623 933.619 190.753C933.619 191.343 933.501 192.464 933.265 194.116C927.955 219.368 924.769 240.549 923.707 257.659C923.471 261.435 922.35 264.09 920.344 265.624C918.338 267.158 915.211 267.925 910.963 267.925Z" fill="black"/>
<path d="M912.918 227.569C914.452 227.569 915.632 228.277 916.458 229.693C917.402 231.109 917.874 233.056 917.874 235.534C917.874 240.254 916.753 243.912 914.511 246.508C909.083 252.762 903.478 257.895 897.696 261.907C892.032 265.919 885.542 267.925 878.226 267.925C872.208 267.925 867.665 266.214 864.597 262.792C861.529 259.252 859.995 254.178 859.995 247.57C859.995 244.266 860.821 238.366 862.473 229.87C864.007 222.436 864.774 217.303 864.774 214.471C864.774 212.583 864.125 211.639 862.827 211.639C861.293 211.639 859.11 213.645 856.278 217.657C853.446 221.551 850.614 226.743 847.782 233.233C844.95 239.723 842.649 246.567 840.879 253.765C838.637 263.205 833.091 267.925 824.241 267.925C820.701 267.925 818.341 266.686 817.161 264.208C816.099 261.612 815.568 257.01 815.568 250.402C815.568 246.626 815.627 243.617 815.745 241.375L815.922 227.215C815.922 209.043 817.751 190.104 821.409 170.398C825.185 150.692 830.672 134.172 837.87 120.838C845.186 107.386 853.918 100.66 864.066 100.66C869.494 100.66 873.86 103.02 877.164 107.74C880.586 112.342 882.297 118.36 882.297 125.794C882.297 137.712 878.816 150.102 871.854 162.964C864.892 175.708 853.564 190.635 837.87 207.745C837.516 213.881 837.339 220.194 837.339 226.684C841.233 216.654 845.54 208.512 850.26 202.258C855.098 195.886 859.818 191.343 864.42 188.629C869.14 185.915 873.447 184.558 877.341 184.558C885.011 184.558 888.846 188.393 888.846 196.063C888.846 200.665 887.548 208.984 884.952 221.02C882.71 231.286 881.589 238.071 881.589 241.375C881.589 246.095 883.3 248.455 886.722 248.455C889.082 248.455 891.855 247.039 895.041 244.207C898.345 241.257 902.711 236.537 908.139 230.047C909.555 228.395 911.148 227.569 912.918 227.569ZM860.349 118.183C858.225 118.183 855.865 121.251 853.269 127.387C850.673 133.405 848.136 141.606 845.658 151.99C843.298 162.256 841.351 173.466 839.817 185.62C847.133 177.006 853.151 167.625 857.871 157.477C862.709 147.329 865.128 138.125 865.128 129.865C865.128 126.089 864.715 123.198 863.889 121.192C863.063 119.186 861.883 118.183 860.349 118.183Z" fill="black"/>
<path d="M772.069 271.819C765.933 271.819 761.213 270.403 757.909 267.571C754.723 264.739 753.13 261.553 753.13 258.013C753.13 254.945 754.251 252.29 756.493 250.048C758.735 247.806 762.039 246.685 766.405 246.685C767.939 246.685 769.709 246.862 771.715 247.216C773.839 247.452 775.432 247.629 776.494 247.747C776.376 244.679 775.668 241.788 774.37 239.074C773.19 236.36 771.656 233.764 769.768 231.286C767.88 228.69 766.11 226.448 764.458 224.56C760.8 231.522 757.142 237.304 753.484 241.906C749.944 246.508 746.05 250.874 741.802 255.004C739.678 257.128 737.436 258.19 735.076 258.19C733.188 258.19 731.654 257.541 730.474 256.243C729.294 254.827 728.704 253.116 728.704 251.11C728.704 248.75 729.53 246.567 731.182 244.561L733.483 241.729C739.973 233.705 744.87 227.097 748.174 221.905C750.18 218.483 752.54 213.94 755.254 208.276C757.968 202.494 760.623 196.535 763.219 190.399C765.461 185.207 770.122 182.611 777.202 182.611C780.506 182.611 782.807 182.906 784.105 183.496C785.403 184.086 786.052 185.03 786.052 186.328C786.052 187.036 785.816 188.157 785.344 189.691C784.872 191.225 784.223 192.759 783.397 194.293C781.273 198.541 780.211 202.14 780.211 205.09C780.211 206.86 780.801 208.807 781.981 210.931C783.279 213.055 785.226 215.71 787.822 218.896C791.598 223.852 794.43 228.1 796.318 231.64C798.324 235.062 799.327 238.838 799.327 242.968C799.327 244.148 799.209 245.8 798.973 247.924C804.755 245.682 811.54 239.723 819.328 230.047C820.744 228.395 822.337 227.569 824.107 227.569C825.641 227.569 826.821 228.277 827.647 229.693C828.591 231.109 829.063 233.056 829.063 235.534C829.063 240.018 827.942 243.676 825.7 246.508C819.8 253.824 814.136 258.839 808.708 261.553C803.398 264.149 796.79 265.565 788.884 265.801C784.164 269.813 778.559 271.819 772.069 271.819Z" fill="black"/>
<path d="M748.603 227.569C750.137 227.569 751.317 228.277 752.143 229.693C753.087 231.109 753.559 233.056 753.559 235.534C753.559 240.254 752.438 243.912 750.196 246.508C745.83 251.818 739.635 256.715 731.611 261.199C723.705 265.683 715.209 267.925 706.123 267.925C693.733 267.925 684.116 264.562 677.272 257.836C670.428 251.11 667.006 241.906 667.006 230.224C667.006 222.082 668.717 214.53 672.139 207.568C675.561 200.488 680.281 194.883 686.299 190.753C692.435 186.623 699.338 184.558 707.008 184.558C713.852 184.558 719.339 186.623 723.469 190.753C727.599 194.765 729.664 200.252 729.664 207.214C729.664 215.356 726.714 222.377 720.814 228.277C715.032 234.059 705.179 238.661 691.255 242.083C694.205 247.511 699.81 250.225 708.07 250.225C713.38 250.225 719.398 248.396 726.124 244.738C732.968 240.962 738.868 236.065 743.824 230.047C745.24 228.395 746.833 227.569 748.603 227.569ZM703.999 201.904C699.633 201.904 695.916 204.441 692.848 209.515C689.898 214.589 688.423 220.725 688.423 227.923V228.277C695.385 226.625 700.872 224.147 704.884 220.843C708.896 217.539 710.902 213.704 710.902 209.338C710.902 207.096 710.253 205.326 708.955 204.028C707.775 202.612 706.123 201.904 703.999 201.904Z" fill="black"/>
<path d="M484.091 267.925C479.725 267.925 476.598 266.981 474.71 265.093C472.822 263.087 471.878 259.37 471.878 253.942C471.878 250.284 472.232 245.623 472.94 239.959C473.766 234.177 475.064 226.271 476.834 216.241C479.902 197.715 482.321 181.667 484.091 168.097C485.153 159.601 485.684 152.521 485.684 146.857C485.684 141.547 483.737 138.892 479.843 138.892C476.775 138.892 473.058 140.485 468.692 143.671C464.444 146.739 459.724 151.695 454.532 158.539C452.88 160.781 451.051 161.902 449.045 161.902C447.393 161.902 445.918 161.135 444.62 159.601C443.44 157.949 442.85 156.12 442.85 154.114C442.85 152.226 443.204 150.338 443.912 148.45C444.738 146.444 446.036 144.202 447.806 141.724C453.47 133.818 459.783 127.741 466.745 123.493C473.707 119.127 480.669 116.944 487.631 116.944C494.121 116.944 499.077 119.009 502.499 123.139C506.039 127.269 507.809 133.287 507.809 141.193C507.809 144.379 507.514 148.155 506.924 152.521C506.334 156.769 505.803 160.25 505.331 162.964C504.859 165.678 504.505 167.566 504.269 168.628C510.995 149.394 518.547 136.001 526.925 128.449C535.303 120.779 544.507 116.944 554.537 116.944C562.207 116.944 568.225 119.658 572.591 125.086C577.075 130.514 579.317 138.184 579.317 148.096C579.317 151.99 578.786 156.828 577.724 162.61C583.624 146.326 590.527 134.644 598.433 127.564C606.339 120.484 615.425 116.944 625.691 116.944C633.951 116.944 640.264 119.599 644.63 124.909C649.114 130.219 651.356 137.653 651.356 147.211C651.356 152.403 650.589 158.716 649.055 166.15L638.258 216.772C637.078 222.672 636.488 227.746 636.488 231.994C636.488 236.95 637.609 240.667 639.851 243.145C642.211 245.623 645.456 246.862 649.586 246.862C653.48 246.862 657.256 245.564 660.914 242.968C664.69 240.372 669.115 236.065 674.189 230.047C675.605 228.395 677.198 227.569 678.968 227.569C680.502 227.569 681.682 228.277 682.508 229.693C683.452 231.109 683.924 233.056 683.924 235.534C683.924 240.136 682.803 243.794 680.561 246.508C674.425 253.942 668.348 259.37 662.33 262.792C656.312 266.214 649.999 267.925 643.391 267.925C633.361 267.925 625.514 264.975 619.85 259.075C614.186 253.057 611.354 245.033 611.354 235.003C611.354 228.041 612.77 217.952 615.602 204.736L622.682 172.345C622.918 171.283 623.331 169.395 623.921 166.681C624.511 163.967 624.983 161.43 625.337 159.07C625.691 156.592 625.868 154.173 625.868 151.813C625.868 147.683 625.042 144.615 623.39 142.609C621.856 140.485 619.614 139.423 616.664 139.423C611.118 139.423 605.277 143.022 599.141 150.22C593.123 157.3 587.341 169.1 581.795 185.62C576.367 202.14 571.942 223.616 568.52 250.048C567.694 257.128 566.219 261.907 564.095 264.385C562.089 266.745 558.785 267.925 554.183 267.925C550.171 267.925 547.221 266.981 545.333 265.093C543.563 263.205 542.678 259.665 542.678 254.473C542.678 249.635 543.327 243.322 544.625 235.534C545.923 227.628 547.575 218.365 549.581 207.745C555.009 179.189 557.723 160.781 557.723 152.521C557.723 148.037 556.838 144.733 555.068 142.609C553.416 140.485 550.879 139.423 547.457 139.423C541.675 139.423 535.716 142.727 529.58 149.335C523.444 155.825 517.426 167.448 511.526 184.204C505.744 200.842 500.906 223.38 497.012 251.818C496.186 257.836 494.947 262.025 493.295 264.385C491.761 266.745 488.693 267.925 484.091 267.925Z" fill="black"/>
<path d="M460.824 227.569C462.358 227.569 463.538 228.277 464.364 229.693C465.308 231.109 465.78 233.056 465.78 235.534C465.78 240.254 464.659 243.912 462.417 246.508C457.343 252.762 451.856 257.895 445.956 261.907C440.174 265.919 433.566 267.925 426.132 267.925C419.878 267.925 414.804 265.683 410.91 261.199C404.184 265.565 397.163 267.807 389.847 267.925C388.313 290.699 384.832 309.697 379.404 324.919C373.976 340.259 366.011 347.929 355.509 347.929C349.137 347.929 344.417 345.628 341.349 341.026C338.281 336.424 336.747 330.052 336.747 321.91C336.747 310.346 339.402 296.835 344.712 281.377C350.022 266.037 358.223 249.104 369.315 230.578C369.315 213.35 369.197 201.373 368.961 194.647C368.843 191.225 370.2 188.511 373.032 186.505C375.864 184.499 379.404 183.496 383.652 183.496C386.13 183.496 387.9 184.027 388.962 185.089C390.142 186.033 390.791 187.98 390.909 190.93C390.909 193.88 390.968 196.063 391.086 197.479C394.862 192.759 398.579 189.396 402.237 187.39C405.895 185.266 409.789 184.204 413.919 184.204C420.527 184.204 425.896 186.859 430.026 192.169C434.274 197.479 436.398 204.441 436.398 213.055C436.398 219.309 435.395 225.386 433.389 231.286C431.383 237.186 428.61 242.555 425.07 247.393C427.548 248.101 429.613 248.455 431.265 248.455C435.159 248.455 438.876 247.039 442.416 244.207C445.956 241.375 450.499 236.655 456.045 230.047C457.461 228.395 459.054 227.569 460.824 227.569ZM390.732 250.933C394.98 249.989 398.874 247.688 402.414 244.03C406.072 240.254 408.963 235.652 411.087 230.224C413.211 224.678 414.273 218.896 414.273 212.878C414.273 209.338 413.565 206.683 412.149 204.913C410.733 203.025 408.845 202.081 406.485 202.081C402.237 202.081 397.104 206.565 391.086 215.533C390.968 220.725 390.909 228.336 390.909 238.366C390.909 243.794 390.85 247.983 390.732 250.933ZM356.925 330.583C360.111 330.583 362.766 323.621 364.89 309.697C367.014 295.891 368.371 278.663 368.961 258.013C363.887 269.813 359.875 281.082 356.925 291.82C353.975 302.558 352.5 311.585 352.5 318.901C352.5 322.677 352.972 325.568 353.916 327.574C354.742 329.58 355.745 330.583 356.925 330.583Z" fill="black"/>
<path d="M247.16 267.925C242.676 267.925 239.49 265.565 237.602 260.845C235.832 256.125 234.947 248.573 234.947 238.189C234.947 222.849 237.13 208.276 241.496 194.47C242.558 191.048 244.269 188.57 246.629 187.036C249.107 185.384 252.529 184.558 256.895 184.558C259.255 184.558 260.907 184.853 261.851 185.443C262.795 186.033 263.267 187.154 263.267 188.806C263.267 190.694 262.382 194.942 260.612 201.55C259.432 206.27 258.488 210.4 257.78 213.94C257.072 217.362 256.482 221.669 256.01 226.861C259.196 217.657 262.972 209.869 267.338 203.497C271.822 197.125 276.365 192.405 280.967 189.337C285.687 186.151 290.112 184.558 294.242 184.558C298.372 184.558 301.263 185.502 302.915 187.39C304.685 189.278 305.57 192.169 305.57 196.063C305.57 199.839 304.449 206.683 302.207 216.595C301.263 220.843 300.614 224.029 300.26 226.153C306.16 211.639 312.709 201.078 319.907 194.47C327.105 187.862 333.831 184.558 340.085 184.558C347.755 184.558 351.59 188.393 351.59 196.063C351.59 200.665 350.292 208.984 347.696 221.02C345.454 231.286 344.333 238.071 344.333 241.375C344.333 246.095 346.044 248.455 349.466 248.455C351.826 248.455 354.599 247.039 357.785 244.207C361.089 241.257 365.455 236.537 370.883 230.047C372.299 228.395 373.892 227.569 375.662 227.569C377.196 227.569 378.376 228.277 379.202 229.693C380.146 231.109 380.618 233.056 380.618 235.534C380.618 240.254 379.497 243.912 377.255 246.508C372.181 252.762 366.694 257.895 360.794 261.907C355.012 265.919 348.404 267.925 340.97 267.925C334.952 267.925 330.409 266.214 327.341 262.792C324.273 259.252 322.739 254.178 322.739 247.57C322.739 244.266 323.565 238.366 325.217 229.87C326.751 222.436 327.518 217.303 327.518 214.471C327.518 212.583 326.869 211.639 325.571 211.639C324.037 211.639 321.854 213.645 319.022 217.657C316.19 221.551 313.358 226.743 310.526 233.233C307.694 239.723 305.393 246.567 303.623 253.765C302.325 259.429 300.791 263.205 299.021 265.093C297.369 266.981 294.655 267.925 290.879 267.925C286.985 267.925 284.035 266.096 282.029 262.438C280.141 258.662 279.197 254.119 279.197 248.809C279.197 244.325 279.787 237.835 280.967 229.339C281.911 221.787 282.383 216.831 282.383 214.471C282.383 212.583 281.734 211.639 280.436 211.639C278.666 211.639 276.424 213.763 273.71 218.011C270.996 222.259 268.341 227.687 265.745 234.295C263.267 240.903 261.261 247.393 259.727 253.765C258.429 259.311 256.895 263.087 255.125 265.093C253.473 266.981 250.818 267.925 247.16 267.925Z" fill="black"/>
<path d="M173.224 267.925C165.908 267.925 160.067 265.27 155.701 259.96C151.335 254.65 149.152 247.688 149.152 239.074C149.152 229.634 151.335 220.725 155.701 212.347C160.067 203.851 165.849 197.066 173.047 191.992C180.363 186.8 188.092 184.204 196.234 184.204C198.83 184.204 200.541 184.735 201.367 185.797C202.311 186.741 203.078 188.511 203.668 191.107C206.146 190.635 208.742 190.399 211.456 190.399C217.238 190.399 220.129 192.464 220.129 196.594C220.129 199.072 219.244 204.972 217.474 214.294C214.76 227.864 213.403 237.304 213.403 242.614C213.403 244.384 213.816 245.8 214.642 246.862C215.586 247.924 216.766 248.455 218.182 248.455C220.424 248.455 223.138 247.039 226.324 244.207C229.51 241.257 233.817 236.537 239.245 230.047C240.661 228.395 242.254 227.569 244.024 227.569C245.558 227.569 246.738 228.277 247.564 229.693C248.508 231.109 248.98 233.056 248.98 235.534C248.98 240.254 247.859 243.912 245.617 246.508C240.779 252.526 235.646 257.6 230.218 261.73C224.79 265.86 219.539 267.925 214.465 267.925C210.571 267.925 206.972 266.627 203.668 264.031C200.482 261.317 198.063 257.659 196.411 253.057C190.275 262.969 182.546 267.925 173.224 267.925ZM179.596 250.048C182.192 250.048 184.67 248.514 187.03 245.446C189.39 242.378 191.101 238.307 192.163 233.233L198.712 200.665C193.756 200.783 189.154 202.671 184.906 206.329C180.776 209.869 177.472 214.589 174.994 220.489C172.516 226.389 171.277 232.643 171.277 239.251C171.277 242.909 171.985 245.623 173.401 247.393C174.935 249.163 177 250.048 179.596 250.048Z" fill="black"/>
<path d="M89.47 268.19C71.2233 268.19 55.3533 264.893 41.86 258.3C28.3667 251.553 18.0167 242.047 10.81 229.78C3.60333 217.513 0 203.253 0 187C0 164.46 4.21667 144.45 12.65 126.97C21.2367 109.49 32.8133 95.9967 47.38 86.49C61.9467 76.83 78.1233 72 95.91 72C112.47 72 125.043 76.2933 133.63 84.88C142.217 93.3133 146.51 104.507 146.51 118.46C146.51 127.813 144.823 135.327 141.45 141C138.23 146.673 133.553 149.51 127.42 149.51C123.127 149.51 119.753 148.513 117.3 146.52C114.847 144.527 113.62 141.613 113.62 137.78C113.62 136.4 113.927 133.87 114.54 130.19C115.46 125.59 115.92 121.91 115.92 119.15C115.92 105.197 108.483 98.22 93.61 98.22C83.49 98.22 73.83 101.517 64.63 108.11C55.43 114.703 47.9933 124.44 42.32 137.32C36.6467 150.047 33.81 165.227 33.81 182.86C33.81 201.26 38.9467 215.52 49.22 225.64C59.4933 235.607 74.6733 240.59 94.76 240.59C104.727 240.59 114.77 239.363 124.89 236.91C135.163 234.303 146.51 230.393 158.93 225.18C161.23 224.26 163.147 223.8 164.68 223.8C167.133 223.8 168.973 224.72 170.2 226.56C171.427 228.4 172.04 230.777 172.04 233.69C172.04 243.043 166.98 249.943 156.86 254.39C145.973 259.143 134.627 262.67 122.82 264.97C111.167 267.117 100.05 268.19 89.47 268.19Z" fill="black"/>
<path d="M188.407 298.828C188.722 298.673 189.039 298.535 189.356 298.414L230.175 280.639L235.743 286.095L235.047 303.678L208.599 320.048C211.981 309.444 200.235 294.261 189.356 298.414L188.407 298.828Z" fill="black"/>
<path d="M192.806 309.135C197.678 308.529 201.14 315.804 197.678 317.017C192.11 318.967 184.006 308.423 190.718 304.284C197.602 300.04 210.825 318.566 200.462 323.08C190.717 327.324 174.485 308.528 188.407 298.828M188.407 298.828C199.537 293.371 212.079 309.135 208.599 320.048L235.047 303.678L235.743 286.095L230.175 280.639L188.407 298.828Z" stroke="black" stroke-width="3" stroke-linecap="round" stroke-linejoin="round"/>
<path d="M319.593 298.828C319.278 298.673 318.961 298.535 318.644 298.414L277.825 280.639L272.257 286.095L272.953 303.678L299.401 320.048C296.019 309.444 307.765 294.261 318.644 298.414L319.593 298.828Z" fill="black"/>
<path d="M315.194 309.135C310.322 308.529 306.86 315.804 310.322 317.017C315.89 318.967 323.994 308.423 317.282 304.284C310.398 300.04 297.175 318.566 307.538 323.08C317.283 327.324 333.515 308.528 319.593 298.828M319.593 298.828C308.463 293.371 295.921 309.135 299.401 320.048L272.953 303.678L272.257 286.095L277.825 280.639L319.593 298.828Z" stroke="black" stroke-width="3" stroke-linecap="round" stroke-linejoin="round"/>
<path d="M240.611 307.334L242.68 286.667C246.129 287.92 248.888 288.546 253.716 288.546C258.544 288.546 262.912 287.92 265.441 286.667L268.2 307.334C265.901 305.872 261.027 303.576 254.406 303.576C247.784 303.576 241.991 305.872 240.611 307.334Z" fill="black" stroke="black" stroke-width="2" stroke-linecap="round" stroke-linejoin="round"/>
<ellipse cx="254" cy="317.666" rx="14.2" ry="10.3333" stroke="black" stroke-width="3"/>
<ellipse cx="254.405" cy="317.666" rx="6.49143" ry="4.30553" stroke="black" stroke-width="3"/>
<path d="M199.012 289.376L222.861 278.516L198.281 271.54C195.972 270.871 187.097 273.503 186.305 280.285C185.584 286.45 191.4 291.119 199.012 289.376Z" fill="black" stroke="black" stroke-width="2" stroke-linecap="round" stroke-linejoin="round"/>
<path d="M307.086 289.509L283.913 278.483L308.078 271.699C310.348 271.047 318.994 273.743 319.664 280.523C320.274 286.687 314.51 291.307 307.086 289.509Z" fill="black" stroke="black" stroke-width="2" stroke-linecap="round" stroke-linejoin="round"/>
<path d="M343.699 112.5C347.892 114.787 352.699 119 353.657 121.642C359.324 121.642 372.557 121.341 380.157 120.141C389.657 118.641 418.642 115.5 426.705 115.5C433.747 115.5 439.204 120 439.704 125.5C440.204 131 433.212 132 426.712 133.5C420.212 135 378.157 136.141 365.157 135.141C352.157 134.141 352.657 136.141 348.157 139.141C343.657 142.141 339.199 162.502 335.699 166.002C332.199 169.502 291.217 178.002 262.699 178.002C238.741 178.002 196.699 166.502 193.699 164.002C190.699 161.502 185.157 139.141 182.657 136.641C180.157 134.141 169.241 132.362 167.699 131.502C166.507 130.837 163.699 124.002 165.699 122.502C169.034 120.001 174.241 120.36 181.699 117.5C182.866 116.833 183.099 116.5 184.699 114.5C186.699 112 210.657 98.6415 268.657 100.142C326.657 101.642 338.199 109.5 343.699 112.5Z" fill="black" stroke="black" stroke-width="2" stroke-linecap="round" stroke-linejoin="round"/>
<path d="M264.712 108C242.496 108 222.474 110.003 208.087 113.2C200.869 114.804 195.232 116.674 191.473 118.649C189.59 119.639 188.325 120.579 187.564 121.404C186.819 122.214 186.712 122.735 186.712 123C186.712 123.265 186.819 123.786 187.564 124.596C188.325 125.421 189.59 126.361 191.473 127.351C195.232 129.326 200.869 131.196 208.087 132.8C222.474 135.997 242.496 138 264.712 138C286.928 138 306.949 135.997 321.337 132.8C328.555 131.196 334.192 129.326 337.951 127.351C339.834 126.361 341.099 125.421 341.859 124.596C342.605 123.786 342.712 123.265 342.712 123C342.712 122.735 342.605 122.214 341.859 121.404C341.099 120.579 339.834 119.639 337.951 118.649C334.192 116.674 328.555 114.804 321.337 113.2C306.949 110.003 286.928 108 264.712 108Z" stroke="white" stroke-width="6"/>
<ellipse cx="5.5" cy="4.5" rx="5.5" ry="4.5" transform="matrix(-1 0 0 1 308.712 119)" fill="white"/>
<ellipse cx="9" cy="5.5" rx="9" ry="5.5" transform="matrix(-1 0 0 1 249.712 116)" fill="white"/>
<path d="M275.712 122.5L281.712 127.5" stroke="white" stroke-width="5" stroke-linecap="round"/>
<path d="M265.712 123L271.712 128" stroke="white" stroke-width="5" stroke-linecap="round"/>
<path d="M213.712 122L219.712 127" stroke="white" stroke-width="5" stroke-linecap="round"/>
<path d="M420.207 118C414.223 118.007 407.241 119.236 406.742 121.295C406.443 122.53 408.409 123.698 410.732 124.178C412.727 124.59 416.218 125 420.207 125C423.24 125 431.712 124.179 431.712 121.295C431.712 119.237 429.197 117.989 420.207 118Z" fill="white"/>
<path d="M253.888 47C253.488 37 261.215 30.5 264.882 29C260.887 39.5 264.135 49.37 265.388 52C267.388 56.201 273.888 64 275.387 71.5C277.449 81.8182 269.215 90.5 264.382 93.5C264.382 91 267.888 82.5 264.382 74C259.434 62.0011 254.388 59.5 253.888 47Z" fill="black"/>
<path d="M234.724 58.8372C234.412 51.7054 240.427 47.0698 243.282 46C240.172 53.4884 242.7 60.5275 243.675 62.4031C245.232 65.3992 250.292 70.9612 251.459 76.3101C253.064 83.6688 246.655 89.8605 242.893 92C242.893 90.2171 245.621 84.155 242.893 78.093C239.041 69.5356 235.113 67.7519 234.724 58.8372Z" fill="black"/>
<path d="M280.724 58.8372C280.412 51.7054 286.427 47.0698 289.282 46C286.172 53.4884 288.7 60.5275 289.675 62.4031C291.232 65.3992 296.292 70.9612 297.459 76.3101C299.064 83.6688 292.655 89.8605 288.893 92C288.893 90.2171 291.621 84.155 288.893 78.093C285.041 69.5356 281.113 67.7519 280.724 58.8372Z" fill="black"/>
<line x1="863.325" y1="16.101" x2="876.203" y2="43.5737" stroke="black" stroke-width="5" stroke-linecap="round"/>
<line x1="977.959" y1="3.08535" x2="969.713" y2="32.2845" stroke="black" stroke-width="5" stroke-linecap="round"/>
<line x1="2.5" y1="-2.5" x2="25.8544" y2="-2.5" transform="matrix(-0.601973 0.798517 -0.799679 -0.600427 1019.07 39.8984)" stroke="black" stroke-width="5" stroke-linecap="round"/>
<line x1="2.5" y1="-2.5" x2="25.8544" y2="-2.5" transform="matrix(-0.986255 -0.165231 0.163323 -0.986573 1079.27 179.174)" stroke="black" stroke-width="5" stroke-linecap="round"/>
<line x1="1074.58" y1="240.757" x2="1043.94" y2="223.308" stroke="black" stroke-width="5" stroke-linecap="round"/>
<line x1="2.5" y1="-2.5" x2="30.6836" y2="-2.5" transform="matrix(-0.855135 0.518405 -0.549721 -0.835348 1068.4 71.8984)" stroke="black" stroke-width="5" stroke-linecap="round"/>
<path d="M920.001 14.3991L922 35.3984" stroke="black" stroke-width="5" stroke-linecap="round"/>
<path d="M1082.93 129.103L1051 134.898" stroke="black" stroke-width="5" stroke-linecap="round"/>
<path d="M924 50.9049L925.999 71.9043" stroke="black" stroke-width="5" stroke-linecap="round"/>
<path d="M1041.41 136.783L1025.53 139.728" stroke="black" stroke-width="5" stroke-linecap="round"/>
<path d="M928 87.8985L929.999 106.904" stroke="black" stroke-width="5" stroke-linecap="round"/>
<path d="M1013.86 142.391L986.136 147.97" stroke="black" stroke-width="5" stroke-linecap="round"/>
<path d="M882.45 55.6821L909 110.898" stroke="black" stroke-width="5" stroke-linecap="round"/>
<path d="M966.564 46.2243L949.38 105.033" stroke="black" stroke-width="5" stroke-linecap="round"/>
<path d="M1000.4 70.7299L967.382 113.635" stroke="black" stroke-width="5" stroke-linecap="round"/>
<path d="M1043.3 176.852L990 167.376" stroke="black" stroke-width="5" stroke-linecap="round"/>
<path d="M1032 216.898L984 188.898" stroke="black" stroke-width="5" stroke-linecap="round"/>
<path d="M1034.82 97.169L980.298 129.495" stroke="black" stroke-width="5" stroke-linecap="round"/>
</svg>
